<svg 
  xmlns="http://www.w3.org/2000/svg"
  xmlns:xlink="http://www.w3.org/1999/xlink"
  version="1.1" 
  width="1200px" height="400px"
>

<style>
    .logo { 
        font-size: 64pt;
        <!-- font-weight: 300; -->
        font-family: "Helvetica Neue", Helvetica, sans-serif;
        letter-spacing: -0.08em
    }
    .signal {stroke: #e2525b; stroke-width: 6; fill: none; stroke-linecap: round}
    .axes { stroke: #575757; stroke-width: 10; stroke-linecap: round;}
    .logo-newcastle { fill: #4f79a5; }
    .logo-data { fill: #f28d38; font-weight: 900;}
    .logo-analytics { fill: #b078a0; }
</style>

<!-- background colour test -->
<!-- <rect x="0" y="0" width="1200" height="400" fill="#222" /> -->

<g id="logo" transform="translate(344 84)">
    <g id="signal" transform="translate(0 180) scale(1, -1.5)">
        <path 
            class="signal"
            d="M 20,72.36211 c 4.261364,-50 15,-150 25,-150 20,0 35,240 55,240 20,0 25,-155 45,-155 20,0 30,110 50,110 20,0 29.88636,-75 50,-75 19.88636,0 30,50 50,50 20,0 30,-35 50,-35 20,0 30,25 50,25 20,0 30,-15 50,-15 10,0 15,0 25,5" 
        />
    </g>    
    <g id="axes" transform="translate(0 0)">
        <line x1="0" y1="72" x2="500" y2="72" class="axes"/>
        <line x1="20" y1="0" x2="20" y2="230" class="axes"/>
    </g>
    
    <g id="logo-text"  transform="translate(30 36)">
        
        <text x="0" y="30" class="logo logo-newcastle">HUNTER</text>
        <text x="0" y="112" class="logo logo-data">DATA</text>
        <text x="0" y="192" class="logo logo-analytics">ANALYTICS</text>
    </g>
</g>

</svg>
